<?xml version="1.0" encoding="UTF-8" standalone="no"?><!DOCTYPE svg PUBLIC "-//W3C//DTD SVG 1.1//EN" "http://www.w3.org/Graphics/SVG/1.1/DTD/svg11.dtd"><svg width="100%" height="100%" viewBox="280 230 240 200" version="1.1" xmlns="http://www.w3.org/2000/svg" xmlns:xlink="http://www.w3.org/1999/xlink" xml:space="preserve" xmlns:serif="http://www.serif.com/" style="fill-rule:evenodd;clip-rule:evenodd;stroke-linejoin:round;stroke-miterlimit:2;"><rect id="Página-2" serif:id="Página 2" x="0" y="0" width="792" height="612" style="fill:none;"/><g id="Capa-1" serif:id="Capa 1"><path d="M483.725,343.683l-42.404,-28.228c-0.184,-0.122 -0.211,-0.293 -0.211,-0.384c0,-0.091 0.027,-0.262 0.211,-0.384l42.405,-28.241c0.8,-0.533 1.277,-1.421 1.278,-2.376l0.003,-15.572c0,-0.797 -0.319,-1.535 -0.899,-2.077c-0.545,-0.51 -1.255,-0.79 -2,-0.79c-0.571,0 -1.128,0.17 -1.609,0.49l-69.973,46.574c-0.801,0.534 -1.278,1.422 -1.278,2.377c0,0.955 0.478,1.843 1.278,2.376l69.973,46.574c0.481,0.321 1.038,0.491 1.609,0.491c0.745,0 1.455,-0.281 2,-0.79c0.58,-0.543 0.899,-1.28 0.899,-2.078l-0.003,-15.587c-0.001,-0.955 -0.479,-1.843 -1.279,-2.375" style="fill-rule:nonzero;"/><path d="M308.275,343.683l42.404,-28.228c0.184,-0.122 0.211,-0.293 0.211,-0.384c0,-0.091 -0.027,-0.262 -0.211,-0.384l-42.405,-28.241c-0.8,-0.533 -1.277,-1.421 -1.278,-2.376l-0.003,-15.572c0,-0.797 0.319,-1.535 0.899,-2.077c0.545,-0.51 1.255,-0.79 2,-0.79c0.571,0 1.128,0.17 1.609,0.49l69.973,46.574c0.801,0.534 1.278,1.422 1.278,2.377c0,0.955 -0.478,1.843 -1.278,2.376l-69.973,46.574c-0.481,0.321 -1.038,0.491 -1.609,0.491c-0.745,0 -1.455,-0.281 -2,-0.79c-0.58,-0.543 -0.899,-1.28 -0.899,-2.078l0.003,-15.587c0.001,-0.955 0.479,-1.843 1.279,-2.375" style="fill-rule:nonzero;"/><path d="M424.611,395.33l-28.228,-42.404c-0.122,-0.184 -0.293,-0.211 -0.384,-0.211c-0.091,0 -0.262,0.027 -0.384,0.211l-28.241,42.405c-0.533,0.8 -1.421,1.277 -2.376,1.278l-15.572,0.003c-0.797,0 -1.535,-0.319 -2.077,-0.899c-0.51,-0.545 -0.79,-1.255 -0.79,-2c0,-0.571 0.17,-1.128 0.49,-1.609l46.574,-69.973c0.534,-0.801 1.422,-1.278 2.377,-1.278c0.955,0 1.843,0.478 2.376,1.278l46.574,69.973c0.321,0.481 0.491,1.038 0.491,1.609c0,0.745 -0.281,1.455 -0.79,2c-0.543,0.58 -1.28,0.899 -2.078,0.899l-15.587,-0.003c-0.955,-0.001 -1.843,-0.479 -2.375,-1.279" style="fill-rule:nonzero;"/><path d="M424.611,234.814l-28.228,42.404c-0.122,0.184 -0.293,0.211 -0.384,0.211c-0.091,0 -0.262,-0.027 -0.384,-0.211l-28.241,-42.405c-0.533,-0.8 -1.421,-1.277 -2.376,-1.278l-15.572,-0.003c-0.797,0 -1.535,0.319 -2.077,0.899c-0.51,0.545 -0.79,1.255 -0.79,2c0,0.571 0.17,1.128 0.49,1.609l46.574,69.973c0.534,0.801 1.422,1.278 2.377,1.278c0.955,0 1.843,-0.478 2.376,-1.278l46.574,-69.973c0.321,-0.481 0.491,-1.038 0.491,-1.609c0,-0.745 -0.281,-1.455 -0.79,-2c-0.543,-0.58 -1.28,-0.899 -2.078,-0.899l-15.587,0.003c-0.955,0.001 -1.843,0.479 -2.375,1.279" style="fill-rule:nonzero;"/></g></svg>