<?xml version="1.0" encoding="UTF-8" standalone="no"?>
<!DOCTYPE svg PUBLIC "-//W3C//DTD SVG 1.1//EN" "http://www.w3.org/Graphics/SVG/1.1/DTD/svg11.dtd">
<svg width="100%" height="100%" viewBox="250 50 550 550" version="1.1" xmlns="http://www.w3.org/2000/svg" xmlns:xlink="http://www.w3.org/1999/xlink" xml:space="preserve" xmlns:serif="http://www.serif.com/" style="fill-rule:evenodd;clip-rule:evenodd;stroke-linejoin:round;stroke-miterlimit:2;">
    <g id="Capa-1" serif:id="Capa 1" transform="matrix(2.269729,0,0,2.269729,-136.512394,-422.6081)">
        <path d="M334.909,244.31L322.25,235.878C320.731,234.866 318.678,235.278 317.665,236.797L290.615,277.409C290.144,278.116 289.107,278.116 288.636,277.409L261.641,236.881C260.629,235.361 258.576,234.949 257.056,235.962L244.399,244.392C242.876,245.406 242.466,247.464 243.484,248.984L286.903,313.841C288.213,315.798 291.09,315.798 292.399,313.84L335.825,248.9C336.841,247.38 336.431,245.324 334.909,244.31" style="fill-rule:nonzero;"/>
        <path d="M334.878,397.712L322.219,406.144C320.7,407.156 318.647,406.744 317.634,405.225L290.584,364.613C290.113,363.906 289.076,363.906 288.605,364.613L261.61,405.141C260.598,406.661 258.545,407.073 257.025,406.06L244.368,397.63C242.845,396.616 242.435,394.558 243.453,393.038L286.872,328.181C288.182,326.224 291.059,326.224 292.368,328.182L335.794,393.122C336.81,394.642 336.4,396.698 334.878,397.712" style="fill-rule:nonzero;"/>
        <path d="M366.3,366.282L374.732,353.623C375.744,352.103 375.332,350.051 373.813,349.038L333.201,321.988C332.494,321.517 332.494,320.48 333.201,320.009L373.729,293.014C375.249,292.002 375.661,289.949 374.648,288.429L366.218,275.772C365.204,274.249 363.146,273.839 361.626,274.857L296.769,318.276C294.812,319.586 294.812,322.463 296.77,323.772L361.71,367.198C363.23,368.214 365.286,367.804 366.3,366.282" style="fill:rgb(183,183,183);fill-rule:nonzero;"/>
        <path d="M212.898,366.25L204.466,353.591C203.454,352.071 203.866,350.019 205.385,349.006L245.997,321.956C246.704,321.485 246.704,320.448 245.997,319.977L205.469,292.982C203.949,291.97 203.537,289.917 204.55,288.397L212.98,275.74C213.994,274.217 216.052,273.807 217.572,274.825L282.429,318.244C284.386,319.554 284.386,322.431 282.428,323.74L217.488,367.166C215.968,368.182 213.912,367.772 212.898,366.25" style="fill:rgb(183,183,183);fill-rule:nonzero;"/>
    </g>
</svg>
