<?xml version="1.0" encoding="UTF-8" standalone="no"?><!DOCTYPE svg PUBLIC "-//W3C//DTD SVG 1.1//EN" "http://www.w3.org/Graphics/SVG/1.1/DTD/svg11.dtd"><svg width="100%" height="100%" viewBox="0 0 1020 612" version="1.1" xmlns="http://www.w3.org/2000/svg" xmlns:xlink="http://www.w3.org/1999/xlink" xml:space="preserve" xmlns:serif="http://www.serif.com/" style="fill-rule:evenodd;clip-rule:evenodd;stroke-linejoin:round;stroke-miterlimit:2;"><g id="Capa-1" serif:id="Capa 1"><path d="M151.106,419.32l-30.771,0l-59.524,-169.073l41.411,0l33.356,106.687l33.934,-106.687l41.411,0l-59.817,169.073Z" style="fill-rule:nonzero;"/><path d="M334.865,372.604c7.86,-10.043 11.791,-23.002 11.791,-38.878c0,-15.269 -3.931,-27.773 -11.791,-37.522c-7.864,-9.74 -18.113,-14.617 -30.767,-14.617c-8.245,0 -15.628,2.216 -22.142,6.63c-6.523,4.423 -11.605,10.6 -15.243,18.537c-3.644,7.939 -5.465,16.929 -5.465,26.972c0,16.076 3.979,29.083 11.936,39.029c7.952,9.944 18.262,14.92 30.915,14.92c12.654,0 22.902,-5.019 30.767,-15.071m-73.618,38.878c-12.465,-7.43 -22.193,-17.879 -29.186,-31.344c-7.002,-13.457 -10.496,-28.933 -10.496,-46.411c0,-16.879 3.494,-31.945 10.496,-45.207c6.994,-13.261 16.721,-23.554 29.186,-30.89c12.463,-7.334 26.746,-11.002 42.851,-11.002c16.101,0 30.432,3.721 42.991,11.153c12.555,7.435 22.329,17.732 29.331,30.89c6.998,13.163 10.496,28.177 10.496,45.055c0,17.478 -3.448,32.955 -10.351,46.411c-6.899,13.465 -16.635,23.914 -29.186,31.344c-12.56,7.437 -26.988,11.151 -43.28,11.151c-16.106,0 -30.388,-3.714 -42.851,-11.151" style="fill-rule:nonzero;"/><path d="M415.675,419.32l0,-169.073l38.826,0l0,20.189c5.941,-8.632 12.601,-14.764 19.986,-18.381c7.375,-3.618 16.053,-5.425 26.023,-5.425l4.603,0l0,39.176l-8.917,0c-12.271,0 -21.854,3.422 -28.759,10.249c-4.41,4.627 -7.668,10.502 -9.773,17.629c-2.114,7.138 -3.163,16.229 -3.163,27.279l0,78.357l-38.826,0Z" style="fill-rule:nonzero;"/><path d="M578.725,419.32c-25.119,0 -37.674,-12.357 -37.674,-37.072l0,-99.454l-23.867,0l0,-32.547l23.867,0l0,-60.879l38.822,0l0,60.879l31.06,0l0,32.547l-31.06,0l0,87.101c0,5.226 0.814,9.146 2.445,11.752c1.626,2.613 5.223,3.918 10.784,3.918l17.541,0l0,33.755l-31.918,0Z" style="fill-rule:nonzero;"/><path d="M751.559,312.628c-0.768,-6.426 -2.782,-11.651 -6.037,-15.672c-3.649,-5.824 -8.442,-10.293 -14.383,-13.408c-5.943,-3.115 -12.56,-4.673 -19.84,-4.673c-7.291,0 -13.855,1.505 -19.698,4.521c-5.851,3.012 -10.598,7.533 -14.238,13.56c-3.452,4.423 -5.562,9.646 -6.326,15.672l80.521,0Zm-83.395,98.853c-12.465,-7.43 -22.101,-17.728 -28.904,-30.89c-6.805,-13.158 -10.207,-28.076 -10.207,-44.757c0,-15.468 3.018,-29.986 9.058,-43.546c6.037,-13.564 15.141,-24.563 27.319,-33.005c12.172,-8.437 27.076,-12.656 44.718,-12.656c14.567,0 27.989,3.166 40.26,9.492c12.269,6.331 22.145,16.078 29.622,29.236c7.477,13.163 11.214,29.488 11.214,48.973l0,8.74l-121.928,0c0.571,7.035 2.585,13.665 6.037,19.891c3.835,7.836 8.959,13.915 15.383,18.232c6.424,4.324 13.757,6.483 22.002,6.483c8.815,0 16.39,-2.363 22.716,-7.084c6.328,-4.717 10.828,-10.8 13.516,-18.235l39.686,0c-5.175,17.888 -14.286,32.397 -27.319,43.55c-13.043,11.151 -29.72,16.725 -50.037,16.725c-16.296,0 -30.679,-3.714 -43.136,-11.151" style="fill-rule:nonzero;"/><path d="M843.009,419.32l-44.289,0l55.214,-85.291l-55.498,-83.782l44.574,0l35.081,56.656l35.945,-56.656l45.154,0l-56.656,83.782l56.367,85.291l-44.865,0l-35.657,-57.564l-35.37,57.564Z" style="fill-rule:nonzero;"/></g></svg>