<?xml version="1.0" encoding="UTF-8" standalone="no"?><!DOCTYPE svg PUBLIC "-//W3C//DTD SVG 1.1//EN" "http://www.w3.org/Graphics/SVG/1.1/DTD/svg11.dtd"><svg width="100%" height="100%" viewBox="0 0 1020 612" version="1.1" xmlns="http://www.w3.org/2000/svg" xmlns:xlink="http://www.w3.org/1999/xlink" xml:space="preserve" xmlns:serif="http://www.serif.com/" style="fill-rule:evenodd;clip-rule:evenodd;stroke-linejoin:round;stroke-miterlimit:2;"><rect id="Página-5" serif:id="Página 5" x="0" y="0" width="1019.57" height="612" style="fill:none;"/><g id="Capa-1" serif:id="Capa 1"><path d="M567.269,390.242c0.526,0 1.009,-0.043 1.45,-0.128c0.44,-0.085 0.819,-0.272 1.135,-0.562c0.434,-0.395 0.651,-0.961 0.651,-1.697c0,-0.934 -0.283,-1.539 -0.849,-1.816c-0.565,-0.276 -1.243,-0.414 -2.032,-0.414l-3.807,0l0,4.617l3.452,0Zm-0.059,-6.57c0.802,0 1.424,-0.188 1.865,-0.562c0.44,-0.375 0.66,-0.911 0.66,-1.608c0,-0.632 -0.19,-1.125 -0.571,-1.481c-0.475,-0.433 -1.263,-0.65 -2.368,-0.65l-2.979,0l0,4.301l3.393,0Zm-5.721,8.662l0,-15.055l5.82,0c1.736,0 3.005,0.389 3.807,1.165c0.645,0.631 0.968,1.499 0.968,2.604c0,0.895 -0.214,1.651 -0.642,2.269c-0.428,0.618 -1.016,0.994 -1.766,1.124c1.013,0.106 1.792,0.474 2.338,1.105c0.546,0.632 0.819,1.46 0.819,2.487c0,0.657 -0.108,1.242 -0.325,1.755c-0.218,0.514 -0.517,0.941 -0.898,1.283c-0.526,0.474 -1.161,0.802 -1.905,0.986c-0.743,0.185 -1.463,0.277 -2.16,0.277l-6.056,0Z" style="fill-rule:nonzero;"/><path d="M575.121,396.398l0,-1.894l1.125,0c0.434,0 0.753,-0.06 0.957,-0.177c0.203,-0.119 0.391,-0.402 0.562,-0.849l0.435,-1.203l-4.164,-10.932l2.367,0l2.941,8.307l2.703,-8.307l2.347,0l-4.577,12.727c-0.316,0.881 -0.69,1.49 -1.125,1.825c-0.434,0.335 -1.045,0.503 -1.835,0.503l-1.736,0Z" style="fill-rule:nonzero;"/><path d="M593.905,392.333l-2.328,0l0,-15.055l3.985,0l3.571,12.214l3.591,-12.214l3.986,0l0,15.055l-2.329,0l0,-13.457l-4.084,13.457l-2.289,0l-4.103,-13.357l0,13.357Z" style="fill-rule:nonzero;"/><path d="M617.6,385.526c-0.052,-0.408 -0.164,-0.757 -0.335,-1.046c-0.263,-0.5 -0.641,-0.884 -1.135,-1.154c-0.492,-0.27 -1.035,-0.404 -1.627,-0.404c-0.619,0 -1.164,0.134 -1.638,0.404c-0.474,0.27 -0.848,0.654 -1.125,1.154c-0.157,0.263 -0.282,0.611 -0.374,1.046l6.234,0Zm-5.958,6.285c-0.829,-0.494 -1.473,-1.171 -1.933,-2.033c-0.462,-0.862 -0.691,-1.825 -0.691,-2.89c0,-1 0.207,-1.941 0.621,-2.822c0.414,-0.881 1.03,-1.592 1.846,-2.131c0.814,-0.539 1.795,-0.809 2.939,-0.809c0.973,0 1.871,0.21 2.693,0.631c0.822,0.422 1.483,1.05 1.983,1.885c0.5,0.835 0.75,1.851 0.75,3.048l0,0.592l-8.622,0c0.039,0.434 0.144,0.829 0.315,1.183c0.264,0.672 0.658,1.205 1.184,1.599c0.526,0.395 1.124,0.592 1.795,0.592c0.697,0 1.296,-0.18 1.796,-0.543c0.5,-0.361 0.861,-0.825 1.085,-1.391l2.269,0c-0.368,1.132 -0.99,2.052 -1.864,2.762c-0.875,0.711 -1.983,1.066 -3.325,1.066c-1.065,0 -2.013,-0.247 -2.841,-0.739" style="fill-rule:nonzero;"/><path d="M625.256,392.333c-0.855,0 -1.5,-0.197 -1.934,-0.592c-0.434,-0.395 -0.651,-1.059 -0.651,-1.993l0,-6.59l-1.697,0l0,-1.815l1.697,0l0,-4.065l2.17,0l0,4.065l2.289,0l0,1.815l-2.289,0l0,6.018c0,0.461 0.066,0.796 0.198,1.006c0.13,0.211 0.433,0.316 0.907,0.316l1.164,0l0,1.835l-1.854,0Z" style="fill-rule:nonzero;"/><path d="M634.272,390.4c0.644,-0.329 1.095,-0.766 1.352,-1.312c0.256,-0.546 0.384,-1.253 0.384,-2.122l-3.098,0.612c-0.762,0.158 -1.314,0.395 -1.657,0.71c-0.276,0.276 -0.414,0.612 -0.414,1.006c0,0.462 0.168,0.819 0.503,1.076c0.335,0.257 0.786,0.384 1.352,0.384c0.578,0 1.105,-0.117 1.578,-0.354m-4.617,1.292c-0.657,-0.573 -0.986,-1.352 -0.986,-2.338c0,-1.012 0.394,-1.809 1.183,-2.388c0.592,-0.434 1.441,-0.756 2.546,-0.967l3.591,-0.69c-0.014,-0.762 -0.217,-1.348 -0.612,-1.756c-0.434,-0.434 -1.013,-0.65 -1.737,-0.65c-0.592,0 -1.108,0.167 -1.547,0.503c-0.441,0.335 -0.721,0.785 -0.84,1.351l-2.15,0c0.184,-1.158 0.703,-2.052 1.558,-2.684c0.856,-0.63 1.855,-0.946 3,-0.946c0.644,0 1.252,0.095 1.825,0.286c0.572,0.19 1.055,0.469 1.45,0.838c0.526,0.487 0.858,1.059 0.996,1.717c0.138,0.657 0.207,1.414 0.207,2.269l0,6.096l-2.17,0l0,-1.617c-0.302,0.513 -0.684,0.914 -1.145,1.203c-0.657,0.421 -1.512,0.632 -2.564,0.632c-1.079,0 -1.948,-0.287 -2.605,-0.859" style="fill-rule:nonzero;"/><path d="M652.443,392.333l-3.157,0l-4.202,-15.055l2.447,0l3.413,12.47l3.256,-12.47l2.663,0l3.275,12.49l3.394,-12.49l2.447,0l-4.203,15.055l-3.157,0l-3.078,-11.878l-3.098,11.878Z" style="fill-rule:nonzero;"/><path d="M674.877,385.526c-0.052,-0.408 -0.164,-0.757 -0.335,-1.046c-0.263,-0.5 -0.641,-0.884 -1.135,-1.154c-0.492,-0.27 -1.035,-0.404 -1.627,-0.404c-0.619,0 -1.164,0.134 -1.638,0.404c-0.474,0.27 -0.848,0.654 -1.125,1.154c-0.157,0.263 -0.282,0.611 -0.374,1.046l6.234,0Zm-5.958,6.285c-0.829,-0.494 -1.473,-1.171 -1.933,-2.033c-0.462,-0.862 -0.691,-1.825 -0.691,-2.89c0,-1 0.207,-1.941 0.621,-2.822c0.414,-0.881 1.03,-1.592 1.846,-2.131c0.814,-0.539 1.795,-0.809 2.939,-0.809c0.973,0 1.871,0.21 2.693,0.631c0.822,0.422 1.483,1.05 1.983,1.885c0.5,0.835 0.75,1.851 0.75,3.048l0,0.592l-8.622,0c0.039,0.434 0.144,0.829 0.315,1.183c0.264,0.672 0.658,1.205 1.184,1.599c0.526,0.395 1.124,0.592 1.795,0.592c0.697,0 1.296,-0.18 1.796,-0.543c0.499,-0.361 0.861,-0.825 1.085,-1.391l2.269,0c-0.368,1.132 -0.99,2.052 -1.864,2.762c-0.875,0.711 -1.983,1.066 -3.325,1.066c-1.065,0 -2.013,-0.247 -2.841,-0.739" style="fill-rule:nonzero;"/><path d="M686.666,389.591c0.559,-0.711 0.839,-1.625 0.839,-2.742c0,-1.118 -0.28,-2.035 -0.839,-2.753c-0.559,-0.717 -1.305,-1.075 -2.239,-1.075c-0.605,0 -1.148,0.161 -1.627,0.483c-0.481,0.323 -0.856,0.777 -1.125,1.361c-0.27,0.586 -0.405,1.247 -0.405,1.984c0,0.736 0.135,1.394 0.405,1.972c0.269,0.579 0.644,1.03 1.125,1.352c0.479,0.323 1.022,0.483 1.627,0.483c0.934,0 1.68,-0.354 2.239,-1.065m-3.699,2.565c-0.513,-0.264 -1.013,-0.724 -1.5,-1.381l0,1.558l-2.17,0l0,-15.054l2.17,0l0,5.604c0.487,-0.658 0.987,-1.115 1.5,-1.372c0.513,-0.257 1.131,-0.384 1.855,-0.384c0.96,0 1.808,0.24 2.545,0.719c0.737,0.481 1.305,1.155 1.706,2.023c0.402,0.869 0.602,1.862 0.602,2.98c0,1.104 -0.2,2.091 -0.602,2.959c-0.401,0.868 -0.969,1.543 -1.706,2.022c-0.737,0.481 -1.585,0.721 -2.545,0.721c-0.724,0 -1.342,-0.132 -1.855,-0.395" style="fill-rule:nonzero;"/><path d="M701.67,390.242c1.711,0 3.055,-0.405 4.036,-1.213c0.979,-0.809 1.469,-2.207 1.469,-4.193c0,-1.894 -0.487,-3.279 -1.46,-4.153c-0.974,-0.875 -2.322,-1.312 -4.045,-1.312l-1.913,0l0,10.871l1.913,0Zm-4.241,2.092l0,-15.055l4.281,0c2.512,0 4.439,0.655 5.781,1.963c1.341,1.309 2.013,3.174 2.013,5.594c0,2.408 -0.675,4.258 -2.023,5.554c-1.348,1.296 -3.278,1.944 -5.791,1.944l-4.261,0Z" style="fill-rule:nonzero;"/><path d="M719.822,385.526c-0.052,-0.408 -0.164,-0.757 -0.335,-1.046c-0.263,-0.5 -0.641,-0.884 -1.135,-1.154c-0.492,-0.27 -1.035,-0.404 -1.627,-0.404c-0.619,0 -1.164,0.134 -1.638,0.404c-0.474,0.27 -0.848,0.654 -1.125,1.154c-0.157,0.263 -0.282,0.611 -0.374,1.046l6.234,0Zm-5.958,6.285c-0.829,-0.494 -1.473,-1.171 -1.933,-2.033c-0.462,-0.862 -0.691,-1.825 -0.691,-2.89c0,-1 0.207,-1.941 0.621,-2.822c0.414,-0.881 1.03,-1.592 1.846,-2.131c0.814,-0.539 1.795,-0.809 2.939,-0.809c0.973,0 1.871,0.21 2.693,0.631c0.822,0.422 1.483,1.05 1.983,1.885c0.5,0.835 0.75,1.851 0.75,3.048l0,0.592l-8.622,0c0.039,0.434 0.144,0.829 0.315,1.183c0.264,0.672 0.658,1.205 1.184,1.599c0.526,0.395 1.124,0.592 1.795,0.592c0.697,0 1.296,-0.18 1.796,-0.543c0.499,-0.361 0.861,-0.825 1.085,-1.391l2.269,0c-0.368,1.132 -0.99,2.052 -1.864,2.762c-0.875,0.711 -1.983,1.066 -3.325,1.066c-1.065,0 -2.013,-0.247 -2.841,-0.739" style="fill-rule:nonzero;"/><path d="M728.8,392.333l-1.757,0l-4.044,-10.99l2.348,0l2.565,7.517l2.624,-7.517l2.348,0l-4.084,10.99Z" style="fill-rule:nonzero;"/><path d="M742.837,392.067c-0.915,-0.335 -1.687,-0.875 -2.319,-1.617c-0.631,-0.743 -1.012,-1.687 -1.144,-2.832l2.368,0c0.223,1.052 0.71,1.805 1.46,2.259c0.749,0.454 1.617,0.681 2.604,0.681c0.961,0 1.713,-0.2 2.259,-0.602c0.546,-0.401 0.819,-0.99 0.819,-1.766c0,-0.578 -0.171,-1.042 -0.513,-1.391c-0.342,-0.349 -0.769,-0.604 -1.282,-0.769c-0.513,-0.165 -1.217,-0.346 -2.111,-0.543c-1.093,-0.237 -1.974,-0.476 -2.644,-0.72c-0.671,-0.243 -1.244,-0.638 -1.717,-1.184c-0.473,-0.545 -0.71,-1.299 -0.71,-2.259c0,-0.895 0.216,-1.663 0.651,-2.309c0.434,-0.644 1.038,-1.134 1.815,-1.47c0.776,-0.335 1.664,-0.503 2.664,-0.503c1.473,0 2.742,0.379 3.807,1.135c1.067,0.757 1.717,1.891 1.954,3.404l-2.328,0c-0.197,-0.855 -0.609,-1.487 -1.233,-1.895c-0.626,-0.408 -1.372,-0.611 -2.24,-0.611c-0.868,0 -1.546,0.181 -2.033,0.543c-0.486,0.362 -0.73,0.865 -0.73,1.509c0,0.5 0.162,0.9 0.484,1.203c0.322,0.303 0.721,0.533 1.194,0.691c0.474,0.158 1.131,0.328 1.973,0.512c1.144,0.251 2.069,0.508 2.772,0.77c0.703,0.263 1.305,0.694 1.806,1.292c0.499,0.6 0.749,1.418 0.749,2.457c0,1.395 -0.476,2.496 -1.43,3.305c-0.954,0.808 -2.293,1.213 -4.015,1.213c-1.04,0 -2.016,-0.167 -2.93,-0.503" style="fill-rule:nonzero;"/><path d="M760.17,390.162c0.5,-0.329 0.892,-0.789 1.174,-1.381c0.283,-0.592 0.424,-1.256 0.424,-1.992c0,-0.711 -0.141,-1.352 -0.424,-1.925c-0.282,-0.571 -0.674,-1.022 -1.174,-1.351c-0.5,-0.328 -1.065,-0.493 -1.697,-0.493c-0.631,0 -1.196,0.162 -1.696,0.484c-0.5,0.322 -0.892,0.769 -1.175,1.341c-0.282,0.573 -0.423,1.22 -0.423,1.944c0,0.749 0.141,1.417 0.423,2.002c0.283,0.585 0.675,1.042 1.175,1.371c0.5,0.33 1.065,0.493 1.696,0.493c0.632,0 1.197,-0.163 1.697,-0.493m-4.547,1.658c-0.836,-0.487 -1.487,-1.168 -1.954,-2.042c-0.467,-0.875 -0.7,-1.871 -0.7,-2.989c0,-1.092 0.233,-2.065 0.7,-2.92c0.467,-0.855 1.118,-1.527 1.954,-2.013c0.835,-0.487 1.785,-0.73 2.85,-0.73c1.065,0 2.016,0.243 2.852,0.73c0.835,0.486 1.486,1.158 1.952,2.013c0.467,0.855 0.702,1.828 0.702,2.92c0,1.105 -0.232,2.095 -0.691,2.969c-0.461,0.875 -1.109,1.559 -1.944,2.052c-0.836,0.493 -1.792,0.74 -2.871,0.74c-1.065,0 -2.015,-0.243 -2.85,-0.73" style="fill-rule:nonzero;"/><path d="M768.694,392.333c-0.855,0 -1.5,-0.197 -1.933,-0.592c-0.435,-0.395 -0.651,-1.059 -0.651,-1.993l0,-12.47l2.17,0l0,11.938c0,0.46 0.073,0.789 0.217,0.986c0.145,0.198 0.44,0.296 0.887,0.296l0.613,0l0,1.835l-1.303,0Z" style="fill-rule:nonzero;"/><path d="M772.206,390.754c-0.171,-0.341 -0.293,-0.736 -0.365,-1.183c-0.073,-0.447 -0.108,-1.033 -0.108,-1.756l0,-6.472l2.17,0l0,6.492c0,1.117 0.19,1.894 0.572,2.327c0.342,0.369 0.855,0.553 1.539,0.553c0.79,0 1.401,-0.25 1.835,-0.75c0.289,-0.316 0.499,-0.743 0.631,-1.282c0.132,-0.54 0.198,-1.27 0.198,-2.19l0,-5.15l2.17,0l0,10.99l-2.17,0l0,-1.559c-0.474,0.632 -0.957,1.086 -1.451,1.362c-0.493,0.276 -1.055,0.414 -1.687,0.414c-1.604,0 -2.716,-0.598 -3.334,-1.796" style="fill-rule:nonzero;"/><path d="M786.925,392.333c-0.855,0 -1.5,-0.197 -1.934,-0.592c-0.434,-0.395 -0.651,-1.059 -0.651,-1.993l0,-6.59l-1.697,0l0,-1.815l1.697,0l0,-4.065l2.17,0l0,4.065l2.289,0l0,1.815l-2.289,0l0,6.018c0,0.461 0.066,0.796 0.198,1.006c0.13,0.211 0.433,0.316 0.907,0.316l1.164,0l0,1.835l-1.854,0Z" style="fill-rule:nonzero;"/><path d="M792.962,392.333l-2.17,0l0,-10.99l2.17,0l0,10.99Zm-2.111,-12.923c-0.29,-0.264 -0.434,-0.592 -0.434,-0.987c0,-0.394 0.144,-0.723 0.434,-0.986c0.289,-0.263 0.632,-0.395 1.026,-0.395c0.407,0 0.753,0.132 1.036,0.395c0.282,0.263 0.424,0.592 0.424,0.986c0,0.395 -0.142,0.723 -0.424,0.987c-0.283,0.263 -0.629,0.395 -1.036,0.395c-0.394,0 -0.737,-0.132 -1.026,-0.395" style="fill-rule:nonzero;"/><path d="M802.313,390.162c0.5,-0.329 0.892,-0.789 1.174,-1.381c0.283,-0.592 0.424,-1.256 0.424,-1.992c0,-0.711 -0.141,-1.352 -0.424,-1.925c-0.282,-0.571 -0.674,-1.022 -1.174,-1.351c-0.5,-0.328 -1.065,-0.493 -1.697,-0.493c-0.631,0 -1.196,0.162 -1.696,0.484c-0.5,0.322 -0.892,0.769 -1.175,1.341c-0.282,0.573 -0.423,1.22 -0.423,1.944c0,0.749 0.141,1.417 0.423,2.002c0.283,0.585 0.675,1.042 1.175,1.371c0.5,0.33 1.065,0.493 1.696,0.493c0.632,0 1.197,-0.163 1.697,-0.493m-4.547,1.658c-0.836,-0.487 -1.487,-1.168 -1.954,-2.042c-0.467,-0.875 -0.7,-1.871 -0.7,-2.989c0,-1.092 0.233,-2.065 0.7,-2.92c0.467,-0.855 1.118,-1.527 1.954,-2.013c0.835,-0.487 1.785,-0.73 2.85,-0.73c1.065,0 2.016,0.243 2.852,0.73c0.835,0.486 1.486,1.158 1.952,2.013c0.467,0.855 0.702,1.828 0.702,2.92c0,1.105 -0.232,2.095 -0.691,2.969c-0.461,0.875 -1.109,1.559 -1.944,2.052c-0.836,0.493 -1.792,0.74 -2.871,0.74c-1.065,0 -2.015,-0.243 -2.85,-0.73" style="fill-rule:nonzero;"/><path d="M808.293,392.333l0,-10.99l2.17,0l0,1.539c0.486,-0.644 0.973,-1.098 1.46,-1.362c0.486,-0.262 1.039,-0.393 1.657,-0.393c1.644,0 2.755,0.591 3.334,1.775c0.224,0.434 0.362,0.878 0.415,1.332c0.052,0.454 0.079,0.996 0.079,1.627l0,6.472l-2.17,0l0,-6.491c0,-1.118 -0.192,-1.895 -0.573,-2.328c-0.355,-0.369 -0.868,-0.553 -1.539,-0.553c-0.802,0 -1.42,0.25 -1.854,0.75c-0.29,0.315 -0.497,0.744 -0.622,1.282c-0.125,0.539 -0.187,1.27 -0.187,2.19l0,5.15l-2.17,0Z" style="fill-rule:nonzero;"/><path d="M821.066,391.554c-0.927,-0.664 -1.483,-1.608 -1.667,-2.831l2.19,0c0.158,0.644 0.483,1.144 0.977,1.499c0.493,0.356 1.147,0.532 1.963,0.532c0.671,0 1.211,-0.127 1.618,-0.384c0.407,-0.257 0.612,-0.622 0.612,-1.095c0,-0.368 -0.126,-0.66 -0.375,-0.878c-0.25,-0.217 -0.566,-0.385 -0.947,-0.503c-0.383,-0.119 -0.888,-0.243 -1.519,-0.375c-0.868,-0.171 -1.573,-0.348 -2.111,-0.533c-0.54,-0.184 -1,-0.487 -1.382,-0.907c-0.381,-0.421 -0.572,-1 -0.572,-1.737c0,-1.039 0.388,-1.834 1.164,-2.387c0.776,-0.552 1.763,-0.828 2.96,-0.828c1.236,0 2.269,0.319 3.097,0.957c0.829,0.638 1.342,1.522 1.54,2.653l-2.033,0c-0.157,-0.618 -0.467,-1.079 -0.927,-1.382c-0.46,-0.301 -1.02,-0.452 -1.677,-0.452c-0.632,0 -1.125,0.117 -1.48,0.354c-0.355,0.237 -0.533,0.56 -0.533,0.967c0,0.329 0.119,0.589 0.355,0.78c0.237,0.191 0.529,0.338 0.878,0.443c0.348,0.106 0.838,0.217 1.47,0.336c0.895,0.17 1.625,0.351 2.19,0.542c0.565,0.191 1.049,0.507 1.451,0.947c0.401,0.441 0.601,1.049 0.601,1.825c0,1.053 -0.388,1.892 -1.163,2.516c-0.778,0.625 -1.849,0.938 -3.217,0.938c-1.381,0 -2.535,-0.332 -3.463,-0.997" style="fill-rule:nonzero;"/><path d="M441.743,357.655l-14.7,0l-28.436,-77.07l19.783,0l15.935,48.632l16.211,-48.632l19.783,0l-28.576,77.07Z" style="fill-rule:nonzero;"/><path d="M529.529,336.36c3.755,-4.578 5.633,-10.485 5.633,-17.722c0,-6.96 -1.878,-12.66 -5.633,-17.104c-3.757,-4.44 -8.653,-6.663 -14.698,-6.663c-3.939,0 -7.466,1.01 -10.578,3.022c-3.116,2.016 -5.544,4.832 -7.282,8.45c-1.741,3.619 -2.611,7.717 -2.611,12.295c0,7.328 1.901,13.257 5.702,17.791c3.799,4.533 8.724,6.801 14.769,6.801c6.045,0 10.941,-2.288 14.698,-6.87m-35.169,17.722c-5.955,-3.387 -10.602,-8.15 -13.943,-14.288c-3.345,-6.134 -5.014,-13.189 -5.014,-21.156c0,-7.694 1.669,-14.562 5.014,-20.607c3.341,-6.045 7.988,-10.737 13.943,-14.081c5.954,-3.343 12.777,-5.015 20.471,-5.015c7.692,0 14.538,1.696 20.538,5.084c5.998,3.389 10.667,8.083 14.012,14.081c3.343,6 5.014,12.844 5.014,20.538c0,7.967 -1.647,15.022 -4.945,21.156c-3.296,6.138 -7.947,10.901 -13.943,14.288c-6,3.39 -12.893,5.083 -20.676,5.083c-7.694,0 -14.517,-1.693 -20.471,-5.083" style="fill-rule:nonzero;"/><path d="M568.134,357.655l0,-77.07l18.548,0l0,9.203c2.838,-3.935 6.02,-6.73 9.548,-8.379c3.523,-1.649 7.669,-2.473 12.432,-2.473l2.199,0l0,17.858l-4.26,0c-5.862,0 -10.44,1.56 -13.739,4.672c-2.107,2.109 -3.663,4.787 -4.669,8.036c-1.01,3.254 -1.511,7.398 -1.511,12.435l0,35.718l-18.548,0Z" style="fill-rule:nonzero;"/><path d="M646.027,357.655c-12,0 -17.998,-5.633 -17.998,-16.899l0,-45.335l-11.402,0l0,-14.836l11.402,0l0,-27.751l18.546,0l0,27.751l14.838,0l0,14.836l-14.838,0l0,39.704c0,2.382 0.389,4.169 1.168,5.357c0.777,1.191 2.495,1.786 5.152,1.786l8.38,0l0,15.387l-15.248,0Z" style="fill-rule:nonzero;"/><path d="M728.594,309.021c-0.367,-2.929 -1.329,-5.311 -2.884,-7.144c-1.743,-2.655 -4.033,-4.692 -6.871,-6.112c-2.839,-1.42 -6,-2.13 -9.478,-2.13c-3.483,0 -6.619,0.686 -9.41,2.061c-2.795,1.373 -5.063,3.434 -6.802,6.181c-1.649,2.016 -2.657,4.397 -3.022,7.144l38.467,0Zm-39.84,45.061c-5.955,-3.387 -10.558,-8.081 -13.808,-14.081c-3.251,-5.998 -4.876,-12.798 -4.876,-20.402c0,-7.051 1.442,-13.669 4.327,-19.85c2.884,-6.183 7.233,-11.197 13.051,-15.045c5.815,-3.846 12.935,-5.769 21.363,-5.769c6.959,0 13.371,1.443 19.233,4.327c5.861,2.886 10.579,7.329 14.151,13.327c3.572,6 5.357,13.442 5.357,22.324l0,3.984l-58.248,0c0.273,3.207 1.235,6.229 2.884,9.067c1.832,3.572 4.28,6.343 7.349,8.311c3.069,1.971 6.572,2.955 10.511,2.955c4.211,0 7.83,-1.077 10.852,-3.229c3.023,-2.15 5.173,-4.923 6.457,-8.312l18.959,0c-2.472,8.154 -6.825,14.768 -13.051,19.852c-6.231,5.083 -14.198,7.624 -23.904,7.624c-7.785,0 -14.656,-1.693 -20.607,-5.083" style="fill-rule:nonzero;"/><path d="M772.282,357.655l-21.158,0l26.377,-38.879l-26.513,-38.191l21.294,0l16.759,25.826l17.172,-25.826l21.571,0l-27.066,38.191l26.928,38.879l-21.433,0l-17.034,-26.24l-16.897,26.24Z" style="fill-rule:nonzero;"/><path d="M334.909,244.31l-12.659,-8.432c-1.519,-1.012 -3.572,-0.6 -4.585,0.919l-27.05,40.612c-0.471,0.707 -1.508,0.707 -1.979,0l-26.995,-40.528c-1.012,-1.52 -3.065,-1.932 -4.585,-0.919l-12.657,8.43c-1.523,1.014 -1.933,3.072 -0.915,4.592l43.419,64.857c1.31,1.957 4.187,1.957 5.496,-0.001l43.426,-64.94c1.016,-1.52 0.606,-3.576 -0.916,-4.59" style="fill-rule:nonzero;"/><path d="M334.878,397.712l-12.659,8.432c-1.519,1.012 -3.572,0.6 -4.585,-0.919l-27.05,-40.612c-0.471,-0.707 -1.508,-0.707 -1.979,0l-26.995,40.528c-1.012,1.52 -3.065,1.932 -4.585,0.919l-12.657,-8.43c-1.523,-1.014 -1.933,-3.072 -0.915,-4.592l43.419,-64.857c1.31,-1.957 4.187,-1.957 5.496,0.001l43.426,64.94c1.016,1.52 0.606,3.576 -0.916,4.59" style="fill-rule:nonzero;"/><path d="M366.3,366.282l8.432,-12.659c1.012,-1.52 0.6,-3.572 -0.919,-4.585l-40.612,-27.05c-0.707,-0.471 -0.707,-1.508 0,-1.979l40.528,-26.995c1.52,-1.012 1.932,-3.065 0.919,-4.585l-8.43,-12.657c-1.014,-1.523 -3.072,-1.933 -4.592,-0.915l-64.857,43.419c-1.957,1.31 -1.957,4.187 0.001,5.496l64.94,43.426c1.52,1.016 3.576,0.606 4.59,-0.916" style="fill:#b7b7b7;fill-rule:nonzero;"/><path d="M212.898,366.25l-8.432,-12.659c-1.012,-1.52 -0.6,-3.572 0.919,-4.585l40.612,-27.05c0.707,-0.471 0.707,-1.508 0,-1.979l-40.528,-26.995c-1.52,-1.012 -1.932,-3.065 -0.919,-4.585l8.43,-12.657c1.014,-1.523 3.072,-1.933 4.592,-0.915l64.857,43.419c1.957,1.31 1.957,4.187 -0.001,5.496l-64.94,43.426c-1.52,1.016 -3.576,0.606 -4.59,-0.916" style="fill:#b7b7b7;fill-rule:nonzero;"/></g></svg>