<?xml version="1.0" encoding="UTF-8" standalone="no"?><!DOCTYPE svg PUBLIC "-//W3C//DTD SVG 1.1//EN" "http://www.w3.org/Graphics/SVG/1.1/DTD/svg11.dtd"><svg width="100%" height="100%" viewBox="0 0 792 612" version="1.1" xmlns="http://www.w3.org/2000/svg" xmlns:xlink="http://www.w3.org/1999/xlink" xml:space="preserve" xmlns:serif="http://www.serif.com/" style="fill-rule:evenodd;clip-rule:evenodd;stroke-linejoin:round;stroke-miterlimit:2;"><rect id="Página-1" serif:id="Página 1" x="0" y="0" width="792" height="612" style="fill:none;"/><g id="Capa-1" serif:id="Capa 1"><path d="M250.646,345.873l-42.171,-28.073c-0.184,-0.122 -0.211,-0.292 -0.211,-0.382c0,-0.091 0.027,-0.261 0.211,-0.382l42.172,-28.086c0.795,-0.53 1.27,-1.413 1.271,-2.363l0.003,-15.487c0,-0.792 -0.318,-1.526 -0.895,-2.066c-0.541,-0.506 -1.247,-0.785 -1.988,-0.785c-0.568,0 -1.122,0.169 -1.601,0.488l-69.589,46.318c-0.796,0.531 -1.271,1.414 -1.271,2.364c0,0.95 0.476,1.833 1.272,2.363l69.588,46.319c0.479,0.319 1.033,0.487 1.601,0.487c0.741,0 1.447,-0.278 1.988,-0.785c0.577,-0.54 0.895,-1.273 0.895,-2.066l-0.003,-15.502c-0.001,-0.95 -0.476,-1.833 -1.272,-2.362" style="fill-rule:nonzero;"/><path d="M76.158,345.873l42.171,-28.073c0.184,-0.122 0.211,-0.292 0.211,-0.382c0,-0.091 -0.027,-0.261 -0.211,-0.382l-42.172,-28.086c-0.795,-0.53 -1.27,-1.413 -1.271,-2.363l-0.003,-15.487c0,-0.792 0.318,-1.526 0.895,-2.066c0.541,-0.506 1.247,-0.785 1.988,-0.785c0.568,0 1.122,0.169 1.601,0.488l69.589,46.318c0.796,0.531 1.271,1.414 1.271,2.364c0,0.95 -0.476,1.833 -1.272,2.363l-69.588,46.319c-0.479,0.319 -1.033,0.487 -1.601,0.487c-0.741,0 -1.447,-0.278 -1.988,-0.785c-0.577,-0.54 -0.895,-1.273 -0.895,-2.066l0.003,-15.502c0.001,-0.95 0.476,-1.833 1.272,-2.362" style="fill-rule:nonzero;"/><path d="M191.856,397.236l-28.073,-42.171c-0.122,-0.184 -0.292,-0.211 -0.382,-0.211c-0.091,0 -0.261,0.027 -0.382,0.211l-28.086,42.172c-0.53,0.795 -1.413,1.27 -2.363,1.271l-15.487,0.003c-0.792,0 -1.526,-0.318 -2.066,-0.895c-0.506,-0.541 -0.785,-1.247 -0.785,-1.988c0,-0.568 0.169,-1.122 0.488,-1.601l46.318,-69.589c0.531,-0.796 1.414,-1.271 2.364,-1.271c0.95,0 1.833,0.476 2.363,1.272l46.319,69.588c0.319,0.479 0.487,1.033 0.487,1.601c0,0.741 -0.278,1.447 -0.785,1.988c-0.54,0.577 -1.273,0.895 -2.066,0.895l-15.502,-0.003c-0.95,-0.001 -1.833,-0.476 -2.362,-1.272" style="fill-rule:nonzero;"/><path d="M191.856,237.601l-28.073,42.171c-0.122,0.184 -0.292,0.211 -0.382,0.211c-0.091,0 -0.261,-0.027 -0.382,-0.211l-28.086,-42.172c-0.53,-0.795 -1.413,-1.27 -2.363,-1.271l-15.487,-0.003c-0.792,0 -1.526,0.318 -2.066,0.895c-0.506,0.541 -0.785,1.247 -0.785,1.988c0,0.568 0.169,1.122 0.488,1.601l46.318,69.589c0.531,0.796 1.414,1.271 2.364,1.271c0.95,0 1.833,-0.476 2.363,-1.272l46.319,-69.588c0.319,-0.479 0.487,-1.033 0.487,-1.601c0,-0.741 -0.278,-1.447 -0.785,-1.988c-0.54,-0.577 -1.273,-0.895 -2.066,-0.895l-15.502,0.003c-0.95,0.001 -1.833,0.476 -2.362,1.272" style="fill-rule:nonzero;"/><g><path d="M270.755,268.168l-3.839,0l0,-31.842l6.886,0l8.555,27.084l8.555,-27.084l6.928,0l0,31.842l-3.839,0l0,-29.547l-9.724,29.547l-3.798,0l-9.724,-29.339l0,29.339Z" style="fill-rule:nonzero;"/><path d="M321.627,254.187c-0.056,-0.834 -0.223,-1.586 -0.5,-2.253c-0.585,-1.308 -1.482,-2.324 -2.693,-3.047c-1.21,-0.723 -2.566,-1.085 -4.068,-1.085c-1.531,0 -2.874,0.362 -4.028,1.085c-1.154,0.723 -2.052,1.739 -2.691,3.047c-0.279,0.612 -0.501,1.363 -0.668,2.253l14.648,0Zm-13.083,12.854c-1.711,-1.029 -3.04,-2.448 -3.986,-4.257c-0.946,-1.808 -1.419,-3.839 -1.419,-6.093c0,-2.142 0.445,-4.125 1.336,-5.947c0.89,-1.822 2.177,-3.29 3.86,-4.403c1.683,-1.112 3.665,-1.669 5.947,-1.669c1.975,0 3.812,0.445 5.509,1.335c1.697,0.891 3.06,2.191 4.09,3.902c1.029,1.712 1.544,3.763 1.544,6.156l0,1.252l-18.78,0c0.055,0.807 0.209,1.572 0.459,2.296c0.584,1.78 1.523,3.199 2.817,4.256c1.294,1.058 2.761,1.586 4.403,1.586c1.669,0 3.102,-0.445 4.298,-1.336c1.196,-0.889 2.059,-2.016 2.588,-3.38l3.797,0c-0.751,2.337 -2.031,4.229 -3.839,5.676c-1.809,1.447 -4.076,2.17 -6.802,2.17c-2.17,0 -4.111,-0.515 -5.822,-1.544" style="fill-rule:nonzero;"/><path d="M337.069,268.168c-1.865,0 -3.242,-0.417 -4.132,-1.252c-0.891,-0.834 -1.335,-2.351 -1.335,-4.549l0,-14.148l-3.714,0l0,-3.13l3.714,0l0,-8.763l3.547,0l0,8.763l5.175,0l0,3.13l-5.175,0l0,13.438c0,0.808 0.055,1.44 0.167,1.899c0.111,0.459 0.361,0.821 0.751,1.086c0.39,0.264 1.002,0.396 1.836,0.396l2.379,0l0,3.13l-3.213,0Z" style="fill-rule:nonzero;"/><path d="M355.431,264.662c1.558,-0.807 2.65,-1.878 3.276,-3.213c0.626,-1.336 0.939,-3.019 0.939,-5.05l-7.512,1.502c-1.725,0.334 -2.991,0.876 -3.797,1.628c-0.641,0.64 -0.96,1.447 -0.96,2.421c0,1.057 0.396,1.905 1.189,2.545c0.793,0.64 1.857,0.96 3.192,0.96c1.42,0 2.643,-0.264 3.673,-0.793m-9.578,2.17c-1.35,-1.169 -2.024,-2.768 -2.024,-4.799c0,-2.004 0.751,-3.59 2.254,-4.758c1.224,-0.974 2.99,-1.697 5.3,-2.17l8.221,-1.586c0,-1.808 -0.473,-3.185 -1.419,-4.132c-1.057,-1.057 -2.476,-1.585 -4.256,-1.585c-1.419,0 -2.651,0.382 -3.694,1.147c-1.043,0.766 -1.704,1.788 -1.982,3.068l-3.547,0c0.389,-2.309 1.453,-4.111 3.192,-5.405c1.739,-1.294 3.763,-1.941 6.073,-1.941c1.363,0 2.629,0.203 3.797,0.606c1.169,0.403 2.156,0.995 2.963,1.774c1.057,1.001 1.725,2.156 2.003,3.463c0.278,1.308 0.418,2.657 0.418,4.049l0,13.605l-3.548,0l0,-3.631c-0.807,1.168 -1.738,2.073 -2.796,2.712c-1.418,0.891 -3.241,1.336 -5.467,1.336c-2.309,0 -4.139,-0.584 -5.488,-1.753" style="fill-rule:nonzero;"/><path d="M376.965,268.168l-3.297,0l-6.76,-23.079l3.797,0l4.842,17.32l5.8,-17.32l3.213,0l5.801,17.32l4.884,-17.32l3.797,0l-6.845,23.079l-3.296,0l-5.927,-18.07l-6.009,18.07Z" style="fill-rule:nonzero;"/><path d="M420.575,254.187c-0.055,-0.834 -0.223,-1.586 -0.5,-2.253c-0.585,-1.308 -1.482,-2.324 -2.693,-3.047c-1.21,-0.723 -2.566,-1.085 -4.068,-1.085c-1.531,0 -2.874,0.362 -4.027,1.085c-1.155,0.723 -2.053,1.739 -2.692,3.047c-0.279,0.612 -0.501,1.363 -0.668,2.253l14.648,0Zm-13.082,12.854c-1.712,-1.029 -3.041,-2.448 -3.987,-4.257c-0.946,-1.808 -1.418,-3.839 -1.418,-6.093c0,-2.142 0.445,-4.125 1.335,-5.947c0.891,-1.822 2.177,-3.29 3.86,-4.403c1.684,-1.112 3.666,-1.669 5.947,-1.669c1.975,0 3.812,0.445 5.509,1.335c1.697,0.891 3.061,2.191 4.09,3.902c1.029,1.712 1.544,3.763 1.544,6.156l0,1.252l-18.78,0c0.055,0.807 0.209,1.572 0.459,2.296c0.585,1.78 1.523,3.199 2.817,4.256c1.294,1.058 2.761,1.586 4.403,1.586c1.67,0 3.102,-0.445 4.298,-1.336c1.197,-0.889 2.06,-2.016 2.588,-3.38l3.797,0c-0.75,2.337 -2.031,4.229 -3.838,5.676c-1.81,1.447 -4.077,2.17 -6.803,2.17c-2.17,0 -4.111,-0.515 -5.821,-1.544" style="fill-rule:nonzero;"/><path d="M443.842,264.307c1.071,-0.765 1.892,-1.815 2.462,-3.151c0.571,-1.335 0.856,-2.838 0.856,-4.507c0,-1.696 -0.285,-3.213 -0.856,-4.549c-0.57,-1.336 -1.391,-2.385 -2.462,-3.151c-1.071,-0.765 -2.316,-1.147 -3.735,-1.147c-1.419,0 -2.685,0.382 -3.798,1.147c-1.113,0.766 -1.982,1.815 -2.608,3.151c-0.626,1.336 -0.939,2.853 -0.939,4.549c0,1.669 0.313,3.179 0.939,4.528c0.626,1.35 1.495,2.4 2.608,3.151c1.113,0.751 2.379,1.127 3.798,1.127c1.419,0 2.664,-0.382 3.735,-1.148m-7.533,3.38c-1.141,-0.597 -2.281,-1.634 -3.422,-3.109l0,3.589l-3.547,0l0,-31.842l3.547,0l0,12.353c1.169,-1.502 2.323,-2.546 3.464,-3.13c1.141,-0.585 2.504,-0.877 4.09,-0.877c2.058,0 3.861,0.501 5.405,1.503c1.544,1.002 2.739,2.414 3.589,4.236c0.847,1.823 1.272,3.902 1.272,6.239c0,2.337 -0.425,4.41 -1.272,6.219c-0.85,1.808 -2.053,3.213 -3.611,4.214c-1.557,1.002 -3.353,1.503 -5.383,1.503c-1.614,0 -2.991,-0.299 -4.132,-0.898" style="fill-rule:nonzero;"/></g><path d="M328.315,396.93l-22.719,0l-38.68,-109.712l21.712,0l28.328,86.993l28.327,-86.993l21.712,0l-38.68,109.712Z" style="fill-rule:nonzero;"/><path d="M420.772,374.642c3.93,-4.792 5.896,-10.974 5.896,-18.549c0,-7.285 -1.966,-13.251 -5.896,-17.902c-3.932,-4.648 -9.057,-6.974 -15.384,-6.974c-4.123,0 -7.815,1.057 -11.072,3.163c-3.261,2.11 -5.802,5.057 -7.621,8.845c-1.822,3.787 -2.733,8.076 -2.733,12.868c0,7.67 1.989,13.876 5.968,18.621c3.977,4.745 9.131,7.119 15.458,7.119c6.327,0 11.452,-2.395 15.384,-7.191m-36.81,18.549c-6.233,-3.545 -11.097,-8.53 -14.594,-14.955c-3.501,-6.42 -5.248,-13.804 -5.248,-22.143c0,-8.053 1.747,-15.242 5.248,-21.569c3.497,-6.326 8.361,-11.237 14.594,-14.738c6.231,-3.499 13.373,-5.248 21.426,-5.248c8.051,0 15.216,1.775 21.496,5.32c6.278,3.548 11.166,8.461 14.666,14.739c3.499,6.28 5.249,13.443 5.249,21.496c0,8.339 -1.724,15.723 -5.176,22.143c-3.45,6.425 -8.318,11.41 -14.594,14.955c-6.28,3.548 -13.495,5.321 -21.641,5.321c-8.053,0 -15.195,-1.773 -21.426,-5.321" style="fill-rule:nonzero;"/><path d="M461.177,396.93l0,-80.666l19.413,0l0,9.632c2.971,-4.119 6.302,-7.044 9.994,-8.77c3.688,-1.726 8.027,-2.588 13.012,-2.588l2.301,0l0,18.692l-4.458,0c-6.136,0 -10.928,1.632 -14.38,4.889c-2.205,2.208 -3.834,5.01 -4.887,8.412c-1.057,3.405 -1.582,7.742 -1.582,13.014l0,37.385l-19.413,0Z" style="fill-rule:nonzero;"/><path d="M542.707,396.93c-12.56,0 -18.838,-5.896 -18.838,-17.687l0,-47.451l-11.934,0l0,-15.528l11.934,0l0,-29.046l19.411,0l0,29.046l15.531,0l0,15.528l-15.531,0l0,41.557c0,2.492 0.408,4.363 1.223,5.607c0.813,1.246 2.612,1.868 5.393,1.868l8.77,0l0,16.106l-15.959,0Z" style="fill-rule:nonzero;"/><path d="M629.127,346.027c-0.386,-3.066 -1.393,-5.558 -3.019,-7.477c-1.826,-2.78 -4.221,-4.911 -7.193,-6.397c-2.972,-1.487 -6.28,-2.23 -9.919,-2.23c-3.647,0 -6.928,0.718 -9.85,2.157c-2.925,1.438 -5.299,3.595 -7.118,6.47c-1.727,2.11 -2.782,4.602 -3.164,7.477l40.263,0Zm-41.7,47.164c-6.233,-3.546 -11.051,-8.458 -14.452,-14.738c-3.403,-6.278 -5.104,-13.395 -5.104,-21.354c0,-7.38 1.51,-14.308 4.529,-20.777c3.019,-6.471 7.571,-11.719 13.66,-15.746c6.086,-4.026 13.539,-6.038 22.359,-6.038c7.286,0 13.995,1.509 20.131,4.528c6.135,3.021 11.073,7.671 14.81,13.949c3.741,6.28 5.609,14.069 5.609,23.366l0,4.17l-60.967,0c0.287,3.356 1.293,6.52 3.019,9.49c1.917,3.739 4.48,6.639 7.692,8.698c3.212,2.064 6.878,3.093 11.001,3.093c4.407,0 8.195,-1.127 11.358,-3.379c3.164,-2.251 5.414,-5.153 6.76,-8.701l19.842,0c-2.586,8.535 -7.142,15.458 -13.66,20.779c-6.521,5.32 -14.861,7.98 -25.018,7.98c-8.149,0 -15.34,-1.772 -21.569,-5.32" style="fill-rule:nonzero;"/><path d="M674.854,396.93l-22.148,0l27.609,-40.693l-27.749,-39.973l22.288,0l17.541,27.031l17.974,-27.031l22.576,0l-28.33,39.973l28.186,40.693l-22.432,0l-17.83,-27.464l-17.685,27.464Z" style="fill-rule:nonzero;"/></g></svg>